<svg id="Layer_1" data-name="Layer 1" xmlns="http://www.w3.org/2000/svg" viewBox="0 0 321.92 387.13"><defs><style>.cls-1{fill:#e4c550;stroke-linejoin:round;}.cls-1,.cls-2{stroke:#565656;stroke-linecap:round;stroke-width:16px;}.cls-2{fill:none;}</style></defs><g id="logo-2"><g id="banner"><g id="head"><g id="left"><path id="face" class="cls-1" d="M587.67,533.56l-76.28-73.27-9.57-58.44-36.66-27.74L460,322.37l54.69-12.1-80-147.84,97.84,181h55.11" transform="translate(-426.71 -154.43)"/><path id="Path_2" data-name="Path 2" class="cls-2" d="M546.87,203.72l-64.73,41.86" transform="translate(-426.71 -154.43)"/><path id="Path_7" data-name="Path 7" class="cls-2" d="M569,285.25l-12.87,57.9" transform="translate(-426.71 -154.43)"/></g><g id="right"><path id="face-2" class="cls-1" d="M587.67,533.57l76.27-73.28,9.58-58.44,36.65-27.74,5.15-51.74-54.68-12.1,80-147.83-97.85,181H587.67" transform="translate(-426.71 -154.43)"/><path id="Path_2-2" data-name="Path 2-2" class="cls-2" d="M628.46,203.72l64.73,41.86" transform="translate(-426.71 -154.43)"/><path id="Path_7-2" data-name="Path 7-2" class="cls-2" d="M606.32,285.25l12.87,57.9" transform="translate(-426.71 -154.43)"/></g></g></g></g></svg>